<svg xmlns="http://www.w3.org/2000/svg" width="132" height="24" fill="none"><g clip-path="url(#clip0_833_4242)"><path d="M9.21 0c2.251 0 4.291.458 6.122 1.354 1.831.896 3.28 2.212 4.348 3.91 1.087 1.716 1.621 3.775 1.621 6.216 0 1.66-.267 3.242-.82 4.71-.553 1.469-1.335 2.785-2.346 3.91a10.694 10.694 0 0 1-3.642 2.631c-1.411.63-3.013.954-4.767.954H0V0h9.211zm.21 5.912c-.514 0-1.048.038-1.601.114a14.17 14.17 0 0 0-1.507.286v11.042a8.971 8.971 0 0 0 1.583.324c.534.057 1.049.076 1.526.076 1.144 0 2.116-.267 2.917-.8a5.303 5.303 0 0 0 1.85-2.137 7.05 7.05 0 0 0 .648-3.013c0-1.754-.476-3.184-1.392-4.271-.953-1.068-2.288-1.621-4.023-1.621zM107.327 0v14.226c0 1.964-.458 3.643-1.392 5.073-.916 1.411-2.155 2.498-3.7 3.26-1.544.764-3.26 1.126-5.149 1.126-1.869 0-3.585-.381-5.13-1.125a9.33 9.33 0 0 1-3.718-3.261c-.915-1.411-1.392-3.109-1.392-5.073V0h6.312v13.788c0 1.163.324 2.135.953 2.88.63.762 1.621 1.124 2.975 1.105 1.354-.019 2.346-.4 2.975-1.125.63-.725.954-1.678.954-2.86V0h6.312zm-26.45 0v23.666h-6.312V12.014s-3.433 3.967-4.634 5.225a43.53 43.53 0 0 1-.954.954s-.725-.706-.953-.954c-1.202-1.277-4.634-5.225-4.634-5.225v11.652h-6.313V0h2.232l9.649 9.993L78.645 0h2.23zM45.425 9.363v4.73h-8.982v3.68h10.164v5.912H30.131V.038h16.476v5.74H36.443v3.585h8.982zM121.57.038c1.335 0 2.632.172 3.929.496 1.296.324 2.326.763 3.127 1.297v6.121a31.594 31.594 0 0 0-2.88-1.468c-.953-.42-2.059-.63-3.337-.63-.744 0-1.392.115-1.926.344-.534.229-.801.59-.801 1.106 0 .572.324.991.973 1.258.648.286 1.449.61 2.403.954l2.421.915c1.64.63 2.804 1.488 3.49 2.575.687 1.087 1.03 2.155 1.03 3.242 0 1.449-.42 2.727-1.259 3.833-.839 1.106-1.964 1.983-3.375 2.631-1.411.649-3.013.954-4.767.954-1.354 0-2.689-.23-4.024-.706-1.335-.477-2.479-1.049-3.471-1.754v-6.103c1.087.82 2.25 1.469 3.49 1.984 1.258.515 2.498.782 3.757.782.781 0 1.43-.096 1.907-.287.476-.19.724-.514.724-.991 0-.343-.171-.63-.534-.877-.362-.248-.839-.458-1.449-.649l-3.204-1.01c-1.258-.401-2.231-.954-2.937-1.66-.705-.705-1.182-1.487-1.449-2.345a8.932 8.932 0 0 1-.4-2.65c0-1.603.4-2.938 1.22-4.044a7.677 7.677 0 0 1 3.166-2.479 10.677 10.677 0 0 1 4.176-.839z" fill="#161311"></path></g><defs><clipPath id="clip0_833_4242"><path fill="#fff" d="M0 0H130V23.666H0z"></path></clipPath></defs></svg>