<svg xmlns="http://www.w3.org/2000/svg" width="240" height="28" fill="none"><path opacity=".07" d="M36 2H4C2.3 2 1 3.3 1 5v18c0 1.7 1.4 3 3 3h32c1.7 0 3-1.3 3-3V5c0-1.7-1.4-3-3-3z" fill="#000"></path><path d="M36 3c1.1 0 2 .9 2 2v18c0 1.1-.9 2-2 2H4c-1.1 0-2-.9-2-2V5c0-1.1.9-2 2-2h32z" fill="#fff"></path><path d="M29.3 12.1H29c-.4 1-.7 1.5-1 3h1.9c-.3-1.5-.3-2.2-.6-3zm2.9 5.9h-1.7c-.1 0-.1 0-.2-.1l-.2-.9-.1-.2h-2.4c-.1 0-.2 0-.2.2l-.3.9c0 .1-.1.1-.1.1h-2.1l.2-.5 2.9-6.8c0-.5.3-.7.8-.7h1.5c.1 0 .2 0 .2.2l1.4 6.5c.1.4.2.7.2 1.1.1.1.1.1.1.2zm-13.4-.3l.4-1.8c.1 0 .2.1.2.1.7.3 1.4.5 2.1.4.2 0 .5-.1.7-.2.5-.2.5-.7.1-1.1-.2-.2-.5-.3-.8-.5-.4-.2-.8-.4-1.1-.7-1.2-1-.8-2.4-.1-3.1.6-.4.9-.8 1.7-.8 1.2 0 2.5 0 3.1.2h.1c-.1.6-.2 1.1-.4 1.7-.5-.2-1-.4-1.5-.4-.3 0-.6 0-.9.1-.2 0-.3.1-.4.2-.2.2-.2.5 0 .7l.5.4c.4.2.8.4 1.1.6.5.3 1 .8 1.1 1.4.2.9-.1 1.7-.9 2.3-.5.4-.7.6-1.4.6-1.4 0-2.5.1-3.4-.2-.1.2-.1.2-.2.1zm-3.5.3c.1-.7.1-.7.2-1 .5-2.2 1-4.5 1.4-6.7.1-.2.1-.3.3-.3H19c-.2 1.2-.4 2.1-.7 3.2-.3 1.5-.6 3-1 4.5 0 .2-.1.2-.3.2M6 10.2c0-.1.2-.2.3-.2h3.4c.5 0 .9.3 1 .8l.9 4.4c0 .1 0 .1.1.2 0-.1.1-.1.1-.1l2.1-5.1c-.1-.1 0-.2.1-.2h2.1c0 .1 0 .1-.1.2l-3.1 7.3c-.1.2-.1.3-.2.4-.1.1-.3 0-.5 0h-1.5c-.1 0-.2 0-.2-.2l-1.6-6.2c-.2-.2-.5-.5-.9-.6-.6-.3-1.7-.5-1.9-.5l-.1-.2z" fill="#142688"></path><path opacity=".07" d="M76 2H44c-1.7 0-3 1.3-3 3v18c0 1.7 1.4 3 3 3h32c1.7 0 3-1.3 3-3V5c0-1.7-1.4-3-3-3z" fill="#000"></path><path d="M76 3c1.1 0 2 .9 2 2v18c0 1.1-.9 2-2 2H44c-1.1 0-2-.9-2-2V5c0-1.1.9-2 2-2h32z" fill="#fff"></path><path d="M56 21a7 7 0 1 0 0-14 7 7 0 0 0 0 14z" fill="#EB001B"></path><path d="M64 21a7 7 0 1 0 0-14 7 7 0 0 0 0 14z" fill="#F79E1B"></path><path d="M63 14c0-2.4-1.2-4.5-3-5.7-1.8 1.3-3 3.4-3 5.7 0 2.3 1.2 4.5 3 5.7 1.8-1.2 3-3.3 3-5.7z" fill="#FF5F00"></path><path opacity=".07" d="M116 2H84c-1.7 0-3 1.3-3 3v18c0 1.7 1.4 3 3 3h32c1.7 0 3-1.3 3-3V5c0-1.7-1.4-3-3-3z" fill="#000"></path><path d="M116 3c1.1 0 2 .9 2 2v18c0 1.1-.9 2-2 2H84c-1.1 0-2-.9-2-2V5c0-1.1.9-2 2-2h32z" fill="#fff"></path><path d="M104.9 10.3c.2-1 0-1.7-.6-2.3-.6-.7-1.7-1-3.1-1h-4.1c-.3 0-.5.2-.6.5L95 17.6c0 .2.1.4.3.4H98l.4-3.4 1.8-2.2 4.7-2.1z" fill="#003087"></path><path d="M104.9 10.3l-.2.2c-.5 2.8-2.2 3.8-4.6 3.8H99c-.3 0-.5.2-.6.5l-.6 3.9-.2 1c0 .2.1.4.3.4h2.1c.3 0 .5-.2.5-.4v-.1l.4-2.4v-.1c0-.2.3-.4.5-.4h.3c2.1 0 3.7-.8 4.1-3.2.2-1 .1-1.8-.4-2.4-.1-.5-.3-.7-.5-.8z" fill="#3086C8"></path><path d="M104.3 10.1c-.1-.1-.2-.1-.3-.1-.1 0-.2 0-.3-.1-.3-.1-.7-.1-1.1-.1h-3c-.1 0-.2 0-.2.1-.2.1-.3.2-.3.4l-.7 4.4v.1c0-.3.3-.5.6-.5h1.3c2.5 0 4.1-1 4.6-3.8v-.2c-.1-.1-.3-.2-.5-.2h-.1z" fill="#012169"></path><path opacity=".07" d="M156 2h-32c-1.7 0-3 1.3-3 3v18c0 1.7 1.4 3 3 3h32c1.7 0 3-1.3 3-3V5c0-1.7-1.4-3-3-3z" fill="#000"></path><path d="M156 3c1.1 0 2 .9 2 2v18c0 1.1-.9 2-2 2h-32c-1.1 0-2-.9-2-2V5c0-1.1.9-2 2-2h32z" fill="#fff"></path><path d="M124.57 9.16H123v5.5h1.57c.83 0 1.43-.2 1.96-.63.63-.52 1-1.3 1-2.11-.01-1.63-1.22-2.76-2.96-2.76zm1.26 4.14c-.34.3-.77.44-1.47.44h-.29V10.1h.29c.69 0 1.11.12 1.47.44.37.33.59.84.59 1.37 0 .53-.22 1.06-.59 1.39zm2.19-4.14h1.07v5.5h-1.07v-5.5zm3.69 2.11c-.64-.24-.83-.4-.83-.69 0-.35.34-.61.8-.61.32 0 .59.13.86.45l.56-.73c-.46-.4-1.01-.61-1.62-.61-.97 0-1.72.68-1.72 1.58 0 .76.35 1.15 1.35 1.51.42.15.63.25.74.31.21.14.32.34.32.57 0 .45-.35.78-.83.78-.51 0-.92-.26-1.17-.73l-.69.67c.49.73 1.09 1.05 1.9 1.05 1.11 0 1.9-.74 1.9-1.81.02-.89-.35-1.29-1.57-1.74zm1.92.65c0 1.62 1.27 2.87 2.9 2.87.46 0 .86-.09 1.34-.32v-1.26c-.43.43-.81.6-1.29.6-1.08 0-1.85-.78-1.85-1.9 0-1.06.79-1.89 1.8-1.89.51 0 .9.18 1.34.62V9.38c-.47-.24-.86-.34-1.32-.34-1.61 0-2.92 1.28-2.92 2.88zm12.76.94l-1.47-3.7h-1.17l2.33 5.64h.58l2.37-5.64h-1.16l-1.48 3.7zm3.13 1.8h3.04v-.93h-1.97v-1.48h1.9v-.93h-1.9V10.1h1.97v-.94h-3.04v5.5zm7.29-3.87c0-1.03-.71-1.62-1.95-1.62h-1.59v5.5h1.07v-2.21h.14l1.48 2.21h1.32l-1.73-2.32c.81-.17 1.26-.72 1.26-1.56zm-2.16.91h-.31v-1.67h.33c.67 0 1.03.28 1.03.82 0 .55-.36.85-1.05.85z" fill="#231F20"></path><path d="M141.16 14.86a2.934 2.934 0 0 0 2.931-2.931 2.933 2.933 0 0 0-2.931-2.931 2.933 2.933 0 0 0-2.931 2.931 2.933 2.933 0 0 0 2.931 2.931z" fill="url(#paint0_linear_858_5560)"></path><path opacity=".65" d="M141.16 14.86a2.934 2.934 0 0 0 2.931-2.931 2.933 2.933 0 0 0-2.931-2.931 2.933 2.933 0 0 0-2.931 2.931 2.933 2.933 0 0 0 2.931 2.931z" fill="url(#paint1_linear_858_5560)"></path><path d="M157.57 9.505c0-.1-.07-.15-.18-.15h-.16v.48h.12v-.19l.14.19h.14l-.16-.2c.06-.01.1-.06.1-.13zm-.2.07h-.02v-.13h.02c.06 0 .09.02.09.06 0 .05-.03.07-.09.07z" fill="#231F20"></path><path d="M157.41 9.176c-.23 0-.42.19-.42.42 0 .23.19.42.42.42.23 0 .42-.19.42-.42 0-.23-.19-.42-.42-.42zm0 .77c-.18 0-.34-.15-.34-.35 0-.19.15-.35.34-.35.18 0 .33.16.33.35 0 .19-.15.35-.33.35z" fill="#231F20"></path><path d="M158 14.984s-9.91 6.89-28.024 10.016h26.023a2.001 2.001 0 0 0 2-1.984l.024-3.02-.023-5.01v-.002z" fill="#F48120"></path><path opacity=".07" d="M196 2h-32c-1.7 0-3 1.3-3 3v18c0 1.7 1.4 3 3 3h32c1.7 0 3-1.3 3-3V5c0-1.7-1.4-3-3-3z" fill="#000"></path><path d="M196 3c1.1 0 2 .9 2 2v18c0 1.1-.9 2-2 2h-32c-1.1 0-2-.9-2-2V5c0-1.1.9-2 2-2h32z" fill="#fff"></path><path d="M173 14v3.7c0 .3-.2.3-.5.2-1.9-.8-3-3.3-2.3-5.4.4-1.1 1.2-2 2.3-2.4.4-.2.5-.1.5.2V14zm2 0v-3.7c0-.3 0-.3.3-.2 2.1.8 3.2 3.3 2.4 5.4-.4 1.1-1.2 2-2.3 2.4-.4.2-.4.1-.4-.2V14zm7.2-7H174c3.8 0 6.8 3.1 6.8 7s-3 7-6.8 7h8.2c3.8 0 6.8-3.1 6.8-7s-3-7-6.8-7z" fill="#3086C8"></path><path opacity=".07" d="M236 2h-32c-1.7 0-3 1.3-3 3v18c0 1.7 1.4 3 3 3h32c1.7 0 3-1.3 3-3V5c0-1.7-1.4-3-3-3z" fill="#000"></path><path d="M236 3c1.1 0 2 .9 2 2v18c0 1.1-.9 2-2 2h-32c-1.1 0-2-.9-2-2V5c0-1.1.9-2 2-2h32z" fill="#006FCF"></path><path d="M209.971 12.268l.774 1.876h-1.542l.768-1.876zm16.075.078h-2.977v.827h2.929v1.239h-2.923v.922h2.977v.739l2.077-2.245-2.077-2.34-.006.858zm-14.063-2.34h3.995l.887 1.935.822-1.941h10.37l1.078 1.19L230.25 10h4.763l-3.519 3.852 3.483 3.828h-4.834l-1.078-1.19-1.125 1.19h-16.91l-.494-1.19h-1.13l-.495 1.19H205l3.286-7.68h3.43l.267.006zm8.663 1.078h-2.239l-1.5 3.536-1.625-3.536h-2.222v4.81l-2.06-4.81h-1.993l-2.382 5.512h1.555l.494-1.19h2.596l.494 1.19h2.72v-3.935l1.751 3.941h1.19l1.74-3.929v3.93h1.458l.024-5.52-.001.001zm9.34 2.768l2.531-2.768h-1.822l-1.601 1.726-1.548-1.726h-5.894v5.518h5.81l1.614-1.738 1.548 1.738h1.875l-2.512-2.75h-.001z" fill="#fff"></path><defs><linearGradient id="paint0_linear_858_5560" x1="142.657" y1="14.275" x2="140.632" y2="11.104" gradientUnits="userSpaceOnUse"><stop stop-color="#F89F20"></stop><stop offset=".25" stop-color="#F79A20"></stop><stop offset=".533" stop-color="#F68D20"></stop><stop offset=".62" stop-color="#F58720"></stop><stop offset=".723" stop-color="#F48120"></stop><stop offset="1" stop-color="#F37521"></stop></linearGradient><linearGradient id="paint1_linear_858_5560" x1="142.338" y1="14.232" x2="139.378" y2="8.446" gradientUnits="userSpaceOnUse"><stop stop-color="#F58720"></stop><stop offset=".359" stop-color="#E16F27"></stop><stop offset=".703" stop-color="#D4602C"></stop><stop offset=".982" stop-color="#D05B2E"></stop></linearGradient></defs></svg>